Coordinates
version=1
nRows=13
nColumns=40
inDegrees=yes

Units are S.I. units (second, meters, Newtons, ...)
Angles are in degrees.

endheader
time	pelvis_tilt	pelvis_list	pelvis_rotation	pelvis_tx	pelvis_ty	pelvis_tz	hip_flexion_r	hip_adduction_r	hip_rotation_r	knee_angle_r	knee_angle_r_beta	ankle_angle_r	subtalar_angle_r	mtp_angle_r	hip_flexion_l	hip_adduction_l	hip_rotation_l	knee_angle_l	knee_angle_l_beta	ankle_angle_l	subtalar_angle_l	mtp_angle_l	lumbar_extension	lumbar_bending	lumbar_rotation	arm_flex_r	arm_add_r	arm_rot_r	elbow_flex_r	pro_sup_r	wrist_flex_r	wrist_dev_r	arm_flex_l	arm_add_l	arm_rot_l	elbow_flex_l	pro_sup_l	wrist_flex_l	wrist_dev_l
     55.79750000	     -8.40811581	     -3.32423678	    -11.45705417	      1.23030440	      0.92762781	      0.50358487	     19.76902370	      3.49177312	     -2.53860008	     15.69504978	     15.69504978	      7.23338492	      8.66174491	     -4.10748838	      5.71640948	     -9.80278854	    -14.83941029	     16.15144322	     16.15144322	     16.09942927	    -10.39912653	      2.71523048	     -8.79257046	      6.97595224	      0.84574303	    -13.26964993	    -11.93462164	     -8.45574141	     32.37944494	     45.78706144	      0.00000000	      0.00000000	     36.83670737	    -19.09166314	    -12.55889632	     71.11078416	     48.46646885	      0.00000000	      0.00000000
     55.82000000	     -8.38633737	     -3.58276144	    -10.59660534	      1.23030280	      0.92784477	      0.50808106	     19.19289954	      3.84540016	     -3.18311647	     15.46774711	     15.46774711	      7.49064704	      8.35377370	     -4.18200472	      6.54541239	    -10.67542729	    -13.94566570	     18.09059664	     18.09059664	     16.02718716	    -10.61820281	      2.59712644	     -8.79238871	      7.04505619	      0.68420478	    -12.56603381	    -11.93267484	     -8.35780004	     32.26538232	     45.79419990	      0.00000000	      0.00000000	     35.56797962	    -18.28628300	    -11.96443743	     69.84771350	     48.38623818	      0.00000000	      0.00000000
     55.84250000	     -8.25437401	     -3.79109763	     -9.75957956	      1.23024737	      0.92812871	      0.51250737	     18.57387530	      4.16494354	     -3.65501521	     15.33733503	     15.33733503	      7.74386221	      7.83118476	     -4.51104957	      7.54138107	    -11.53831645	    -13.05499561	     20.51778648	     20.51778648	     16.10150459	    -10.73757126	      2.82590535	     -8.80482465	      7.00500993	      0.93907568	    -11.45698796	    -11.87892568	     -7.94735930	     30.66125540	     45.86168466	      0.00000000	      0.00000000	     34.75724133	    -17.28539877	    -10.24476961	     66.75202969	     48.16746000	      0.00000000	      0.00000000
     55.86500000	     -8.07667364	     -4.01117783	     -8.90173136	      1.23007914	      0.92834470	      0.51672277	     17.97081547	      4.46321787	     -4.26981016	     15.30682638	     15.30682638	      8.12665751	      7.53940900	     -4.62106299	      8.82541510	    -12.38698478	    -11.76697318	     23.42821758	     23.42821758	     15.61357739	    -11.53927929	      2.21785569	     -8.97328532	      7.01054013	      0.87225018	    -10.46114940	    -11.85431956	     -7.95085612	     30.82193142	     45.86638183	      0.00000000	      0.00000000	     32.80215314	    -16.34629468	     -9.70574861	     65.56490740	     48.08852065	      0.00000000	      0.00000000
     55.88750000	     -7.93563825	     -4.19131448	     -8.03708933	      1.22973955	      0.92828064	      0.52075935	     17.55565054	      4.73488272	     -4.82200030	     15.49634705	     15.49634705	      8.51934191	      6.99026614	     -4.75052772	     10.53958562	    -13.18920983	    -10.24620358	     26.91924518	     26.91924518	     14.81366129	    -12.61116299	      1.27756380	     -9.01245001	      6.97186987	      0.72090718	     -9.17731408	    -11.85012478	     -7.90789189	     30.72772057	     45.88227318	      0.00000000	      0.00000000	     30.67869212	    -15.44431953	     -8.91887527	     63.68774612	     47.97817581	      0.00000000	      0.00000000
     55.91000000	     -7.59999748	     -4.36032900	     -7.18568716	      1.22940325	      0.92816033	      0.52468012	     17.07012196	      4.98403748	     -5.21971500	     15.92303426	     15.92303426	      9.04614901	      6.31999582	     -4.92206969	     12.32358306	    -13.90973765	     -8.60056646	     30.84534480	     30.84534480	     13.72521776	    -13.83510083	      0.21589645	     -9.28230459	      6.87810088	      0.69956217	     -7.64837016	    -11.87996222	     -7.85004186	     30.62087409	     45.89943109	      0.00000000	      0.00000000	     28.42965880	    -14.46924458	     -8.05943178	     61.58456252	     47.85898002	      0.00000000	      0.00000000
     55.93250000	     -7.29130438	     -4.45185077	     -6.34594065	      1.22889966	      0.92764379	      0.52845422	     16.86059376	      5.20492145	     -5.31129837	     16.75016811	     16.75016811	      9.71727476	      4.95146211	     -4.92298716	     14.31200979	    -14.43869916	     -6.80126254	     34.86285214	     34.86285214	     11.34979005	    -15.80872357	     -2.77424659	     -9.36169467	      6.68483682	      0.95311454	     -5.31296255	    -11.85908304	     -7.66722596	     28.40736649	     46.02223995	      0.00000000	      0.00000000	     27.04047667	    -13.59800007	     -5.66018540	     56.59226320	     47.57350262	      0.00000000	      0.00000000
     55.95500000	     -6.89136286	     -4.60497084	     -5.47081946	      1.22837585	      0.92676046	      0.53197254	     16.67213888	      5.42593504	     -5.63024889	     17.78286742	     17.78286742	     10.40815397	      3.89128217	     -5.18862229	     16.58431141	    -14.97925477	     -4.93252048	     39.52562838	     39.52562838	      9.83530480	    -16.92517621	     -3.43230789	     -9.68016963	      6.57496155	      0.83684643	     -3.46243613	    -11.96608620	     -7.77593081	     28.92364616	     46.02812727	      0.00000000	      0.00000000	     24.28033706	    -12.66429545	     -4.95462890	     54.45643033	     47.46134827	      0.00000000	      0.00000000
     55.97750000	     -6.46293935	     -4.65528795	     -4.61422201	      1.22773359	      0.92536614	      0.53530894	     16.75424397	      5.59166972	     -5.58355236	     19.32759425	     19.32759425	     11.26985182	      2.06786471	     -5.36153066	     18.96300865	    -15.26840791	     -3.04069425	     44.28312983	     44.28312983	      8.26016410	    -17.88985611	     -3.46004648	     -9.94396005	      6.34588245	      0.55928832	     -1.10701715	    -12.04769920	     -7.83691370	     29.22536401	     46.04549351	      0.00000000	      0.00000000	     21.67716522	    -11.93738297	     -3.94784155	     51.05981496	     47.30881164	      0.00000000	      0.00000000
     56.00000000	     -5.90858659	     -4.74827517	     -3.74485010	      1.22703385	      0.92377992	      0.53841131	     16.77397719	      5.83790915	     -5.36114296	     20.99183417	     20.99183417	     12.31184168	      0.06057124	     -4.88133091	     21.36706428	    -15.36564132	     -0.96135292	     49.18624647	     49.18624647	      7.70657685	    -18.27607679	     -0.37360761	    -10.35740748	      6.15510836	      0.99561821	      1.40638683	    -12.25431576	     -7.96741574	     28.47286456	     46.12508740	      0.00000000	      0.00000000	     20.21390143	    -10.81632370	     -1.89132637	     45.27591530	     47.04450231	      0.00000000	      0.00000000
     56.02250000	     -5.36337914	     -4.79211100	     -2.85552270	      1.22626601	      0.92167832	      0.54119463	     16.94103874	      6.03322695	     -5.15811586	     22.87359355	     22.87359355	     13.33396680	     -2.02998985	     -4.55960919	     23.75421028	    -15.23009752	      1.06082807	     53.78975369	     53.78975369	      7.22655378	    -18.58360603	      3.16699332	    -10.77811268	      5.94001225	      0.94086687	      3.96542007	    -12.46286080	     -8.29316685	     29.23459693	     46.14710073	      0.00000000	      0.00000000	     17.80454743	    -10.01963039	     -0.63212644	     41.16859788	     46.85597860	      0.00000000	      0.00000000
     56.04500000	     -4.86646939	     -4.81861720	     -1.94232126	      1.22538484	      0.91900868	      0.54371349	     17.29333771	      6.14323656	     -5.23220423	     24.97221746	     24.97221746	     14.25787348	     -3.78004048	     -4.83947171	     26.01819301	    -15.08225061	      2.72850560	     57.74418725	     57.74418725	      6.02755790	    -18.87377398	      4.23324054	    -11.19383218	      5.70950035	      0.80444792	      6.59833662	    -12.68995324	     -8.45612762	     30.46664382	     46.13011979	      0.00000000	      0.00000000	     14.81222943	     -9.37019558	     -0.06582618	     38.63372976	     46.74013208	      0.00000000	      0.00000000
     56.06750000	     -4.27484985	     -4.77398451	     -1.03085247	      1.22445861	      0.91656131	      0.54587320	     17.47520570	      6.28670688	     -4.93929155	     26.93757980	     26.93757980	     15.44443365	     -5.89305764	     -3.72363511	     28.13607668	    -14.49906633	      4.53580734	     61.38225826	     61.38225826	      7.14373151	    -18.94076640	     11.37358388	    -11.65000229	      5.42867539	      1.06034601	      9.41478865	    -13.09965627	     -8.50536252	     31.32438709	     46.12402211	      0.00000000	      0.00000000	     13.03480478	     -8.45776452	      1.46419056	     33.19064077	     46.50068648	      0.00000000	      0.00000000
